PathFileType	4	(X/Y/Z)	C:\Users\Basilio\Documents\Thesis Gigler\squatting_fais\c3dfiles\039\SLS_pre_back5\markers_experimental.trc
DataRate	CameraRate	NumFrames	NumMarkers	Units	OrigDataRate	OrigDataStartFrame	OrigNumFrames
200.000000	200.000000	4	65	mm	200.000000	1208	1934
Frame#	Time	FHD			LBHD			RBHD			C7			T10			CLAV			LSHO			LUUPA			LMUPA			LDUPA			LLEP			LMEP			LRAD			LUL			LRFIN			RSHO			RUPA1			RMUPA			RDUPA			RLEP			RMEP			RRAD			RUL			RUFIN			LASI			RASI			USACR			LSACR			RSACR			LTHI1			LTHI2			LTHI3			LTHI4			LLFC			LMFC			LTIB1			LTIB2			LTIB3			LTIB4			LLMAL			LMMAL			LHEE			LMT1			LMT2			LMT5			RTHI			RTHI2			RTHI3			RTHI4			RLFC			RMFC			RTIB1			RTIB2			RTIB3			RTIB4			RLMAL			RMMAL			RHEE			RMT1			RMT2			RMT5			*61			*62			*63			*64			
		X1	Y1	Z1	X2	Y2	Z2	X3	Y3	Z3	X4	Y4	Z4	X5	Y5	Z5	X6	Y6	Z6	X7	Y7	Z7	X8	Y8	Z8	X9	Y9	Z9	X10	Y10	Z10	X11	Y11	Z11	X12	Y12	Z12	X13	Y13	Z13	X14	Y14	Z14	X15	Y15	Z15	X16	Y16	Z16	X17	Y17	Z17	X18	Y18	Z18	X19	Y19	Z19	X20	Y20	Z20	X21	Y21	Z21	X22	Y22	Z22	X23	Y23	Z23	X24	Y24	Z24	X25	Y25	Z25	X26	Y26	Z26	X27	Y27	Z27	X28	Y28	Z28	X29	Y29	Z29	X30	Y30	Z30	X31	Y31	Z31	X32	Y32	Z32	X33	Y33	Z33	X34	Y34	Z34	X35	Y35	Z35	X36	Y36	Z36	X37	Y37	Z37	X38	Y38	Z38	X39	Y39	Z39	X40	Y40	Z40	X41	Y41	Z41	X42	Y42	Z42	X43	Y43	Z43	X44	Y44	Z44	X45	Y45	Z45	X46	Y46	Z46	X47	Y47	Z47	X48	Y48	Z48	X49	Y49	Z49	X50	Y50	Z50	X51	Y51	Z51	X52	Y52	Z52	X53	Y53	Z53	X54	Y54	Z54	X55	Y55	Z55	X56	Y56	Z56	X57	Y57	Z57	X58	Y58	Z58	X59	Y59	Z59	X60	Y60	Z60	X61	Y61	Z61	X62	Y62	Z62	X63	Y63	Z63	X64	Y64	Z64	X65	Y65	Z65	

1209	6.04	-110.5405426025391	1430.690551757813	-654.5105590820314	-272.9435729980469	1418.27490234375	-772.4558105468752	-242.4682312011719	1418.263549804688	-634.2885742187501	-328.3421936035157	1269.888916015625	-717.8859863281251	-444.180145263672	1008.102722167969	-783.282653808594	nan	nan	nan	-254.1465454101563	1286.82666015625	-868.4329223632815	-92.24865722656251	1263.154296875	-983.3638916015627	-69.16943359375001	1291.015625	-949.0584716796877	-23.07498931884766	1272.504638671875	-981.7589111328127	44.58024978637696	1279.725463867188	-975.0440063476565	48.50771713256837	1206.991088867188	-948.8989257812502	318.2652282714844	1307.851928710938	-871.6565551757815	321.6752929687501	1318.887817382813	-947.0595703125002	393.4523315429689	1353.185424804688	-859.8885498046877	-217.7749786376954	1257.32861328125	-572.0698242187501	-59.43628311157228	1187.40234375	-479.0232849121095	-33.79158782958985	1224.66845703125	-501.5719604492189	9.869405746459963	1187.399780273438	-482.380828857422	71.97877502441408	1203.990844726563	-492.4940490722657	78.74629211425783	1142.43994140625	-539.5863647460939	354.9908447265626	1271.148315429688	-573.4131469726564	359.2793273925782	1251.78125	-500.1067504882814	433.9817504882814	1317.135620117188	-563.4825439453126	-377.7314453125001	781.4842529296877	-893.278991699219	-384.4595947265626	805.8372802734377	-670.9280395507814	-530.4593505859376	898.1665039062502	-794.5915527343752	-546.9922485351564	867.8343505859377	-819.2844238281252	-550.5330200195314	874.3854980468752	-760.6611328125001	-375.6553649902344	549.8262939453126	-998.096618652344	-312.9469909667969	493.1696777343751	-1014.941284179688	-268.7070922851563	507.6595458984376	-1003.379272460938	-317.5684814453126	430.3785095214845	-1006.440124511719	-282.2060852050782	357.8717651367188	-1006.099670410156	-256.9488525390626	312.8792114257813	-898.341247558594	-366.0044250488282	256.7217102050782	-973.9710693359377	-423.1108703613282	320.5368041992188	-1000.339050292969	-419.104705810547	277.8452148437501	-990.8892211914065	-488.8365783691407	265.3924255371094	-938.7011718750002	-673.4990844726564	301.0128173828126	-940.2651367187502	-645.0421142578126	285.3196411132813	-859.0999145507815	-676.5143432617189	375.9941101074219	-903.404235839844	-746.2778930664064	170.6196441650391	-815.9547119140627	-769.3336181640627	171.8650512695313	-850.8908691406252	-804.9055175781252	219.5747833251954	-890.383483886719	-313.5192565917969	617.0050048828126	-602.5455322265626	-246.9636840820313	612.1970214843751	-602.3355712890626	-227.095199584961	639.5123291015626	-608.9943237304689	-203.8135070800782	539.9343261718751	-609.6884155273439	-148.9833221435547	443.6616821289064	-650.7000122070314	-123.6158065795899	463.0124511718751	-759.3693237304689	-188.0766143798828	263.5683593750001	-712.7336425781251	-291.6816101074219	236.7153320312501	-701.2644653320314	-253.6329345703126	212.4469909667969	-713.7838134765626	-261.1117553710938	170.0213775634766	-755.7525634765626	-359.6484375000001	111.8954086303711	-741.1723022460939	-332.0783996582032	134.0180816650391	-826.1256103515627	-438.3142700195314	97.48652648925784	-793.778991699219	-212.9360046386719	52.83088302612306	-806.8056640625002	-216.7888946533204	55.30802154541017	-760.9959106445314	-272.4542846679688	36.66743087768555	-709.7457885742189	nan	nan	nan	nan	nan	nan	nan	nan	nan	nan	nan	nan	
1210	6.045	-110.3729400634766	1430.247192382813	-654.5995483398439	-273.0297241210938	1417.845336914063	-772.6328125000002	-242.3551940917969	1417.330200195313	-634.0354614257814	-328.3173522949219	1269.495361328125	-718.0640869140626	-444.3958740234376	1007.686096191406	-783.4738769531252	nan	nan	nan	-254.4576568603516	1286.496337890625	-868.786071777344	-92.03166961669923	1262.410278320313	-983.499206542969	-69.15850830078126	1290.573120117188	-949.2122192382815	-22.87988662719727	1272.067993164063	-982.0671386718752	44.57426834106446	1279.205078125	-975.1726074218752	48.54848098754884	1206.575927734375	-948.9797973632815	318.2743835449219	1307.220458984375	-871.6837158203127	321.5753173828126	1318.130737304688	-947.0535278320315	393.5409240722657	1352.292114257813	-859.8198242187502	-217.893051147461	1256.91748046875	-572.2005615234376	-59.26092529296876	1187.169677734375	-478.7610168457032	-33.95092391967774	1224.035888671875	-501.543670654297	9.530814170837404	1186.626708984375	-482.4950256347657	71.73724365234376	1203.401000976563	-492.3843078613282	78.65773773193361	1141.631713867188	-539.4957275390626	354.7959899902344	1270.415893554688	-573.1951293945314	359.2316894531251	1251.133422851563	-500.0343017578126	433.916717529297	1316.425415039063	-563.3162231445314	-377.8357543945313	781.2984619140627	-893.3403320312502	-384.5540161132814	805.561462402344	-670.8860473632814	-530.6290283203126	897.891540527344	-794.697692871094	-546.9474487304689	867.4746704101565	-819.3653564453127	-550.3945922851564	873.992614746094	-760.7299804687501	-375.6795043945313	549.3900756835939	-998.0275878906252	-312.8674011230469	492.7490844726564	-1014.850891113281	-268.6537780761719	507.296112060547	-1003.240173339844	-317.5133972167969	429.9962158203126	-1006.318237304688	-282.2976379394532	357.3667907714844	-1005.864929199219	-256.8320312500001	312.4276733398438	-898.1545410156252	-366.0429077148438	256.6670532226563	-973.9133911132815	-423.0502014160157	320.6087341308594	-1000.1513671875	-419.1475524902345	277.5626220703126	-990.6949462890627	-488.8793945312501	265.0810546875001	-938.642761230469	-673.4563598632814	300.7326660156251	-940.2791137695315	-645.1029052734376	285.1251220703126	-859.0330200195315	-676.4418945312501	375.8052673339844	-903.4497070312502	-746.3668823242189	170.4980926513672	-815.9265747070315	-769.4946899414065	171.6869049072266	-850.8890380859377	-805.0480957031252	219.4632873535157	-890.4831542968752	-313.6247863769532	616.8594970703126	-602.5512695312501	-246.7703704833985	612.3439331054689	-602.0920410156251	-227.1392211914063	639.4113769531251	-609.0020751953126	-203.8147735595704	539.8062133789064	-609.6610107421876	-148.9516754150391	443.5583496093751	-650.6684570312501	-123.6543045043946	462.9950256347657	-759.2733154296876	-188.0292510986328	263.4655151367188	-712.6099243164064	-291.6921691894532	236.6919555664063	-701.2612304687501	-253.6059112548829	212.453598022461	-713.7872924804689	-261.1394958496094	170.0733032226563	-755.7282104492189	-359.6642150878907	111.9002456665039	-741.1798095703126	-332.1018371582032	133.9984588623047	-826.1362304687502	-438.3390502929689	97.47872161865237	-793.760192871094	-212.9806823730469	52.87390136718751	-806.8348388671877	-216.8112335205079	55.30639266967775	-760.9707641601564	-272.4661865234376	36.64352416992188	-709.7412719726564	nan	nan	nan	nan	nan	nan	nan	nan	nan	nan	nan	nan	
1211	6.05	-110.3707427978516	1429.909545898438	-654.7882080078126	-272.9093322753907	1417.362426757813	-772.8843383789065	-242.593978881836	1417.677978515625	-634.3814086914064	-328.3453979492188	1269.19677734375	-718.1974487304689	-444.5143432617189	1007.397766113281	-783.6057739257815	nan	nan	nan	-254.4660797119141	1286.165771484375	-868.9222412109377	-91.90454101562501	1261.86865234375	-983.5850830078127	-69.14334106445314	1290.095336914063	-949.3414306640627	-22.93055534362793	1271.573852539063	-982.106628417969	44.61568069458009	1278.70703125	-975.186950683594	48.52161407470705	1205.882202148438	-948.9570922851565	318.3069458007813	1306.578369140625	-871.6653442382815	321.6668395996094	1317.385131835938	-947.0833129882815	393.6703186035157	1351.536743164063	-859.7492675781252	-217.9998779296876	1256.523315429688	-572.3004760742189	-59.72339630126955	1186.28515625	-479.1141357421876	-34.0398292541504	1223.460815429688	-501.561004638672	9.37008857727051	1186.124145507813	-482.368621826172	71.67873382568361	1202.617065429688	-492.265106201172	78.53034973144533	1141.033813476563	-539.4572143554689	354.6924743652344	1269.579833984375	-573.0304565429689	359.2585754394532	1250.455810546875	-499.5469665527345	433.7679443359376	1315.704467773438	-563.1320800781251	-377.8504638671876	780.9383544921877	-893.300720214844	-384.6386108398439	805.2766113281252	-670.9552612304689	-530.8140258789064	897.670837402344	-794.8073730468752	-546.4841308593751	866.976013183594	-819.5006103515627	-550.4689941406251	873.7573852539065	-760.8653564453126	-375.6140441894532	548.9569702148439	-997.9484863281252	-312.8054504394532	492.3762512207032	-1014.762512207031	-268.5718078613282	506.7476501464845	-1003.026794433594	-317.4736022949219	429.6709899902345	-1006.1640625	-282.2784118652344	356.9505920410157	-1005.571166992188	-256.8075561523438	312.0517272949219	-898.0131835937502	-366.0381164550782	256.3035583496094	-973.7902832031252	-423.0638732910157	319.9353942871094	-1000.059692382813	-419.1008605957032	277.2019042968751	-990.4953613281252	-488.8253784179689	264.8166198730469	-938.4444580078127	-673.4579467773439	300.4477233886719	-940.2365722656252	-645.1718139648439	284.9302062988282	-858.9113769531252	-676.3873901367189	375.6082763671876	-903.4558715820315	-746.5401000976564	170.3125915527344	-815.9800415039065	-769.8247680664065	170.6620025634766	-850.9995727539065	-805.1481933593752	219.3243560791016	-890.5920410156252	-313.7761840820313	616.7271728515626	-602.5244750976564	-246.8716888427735	612.2137451171876	-602.0855102539064	-227.2108459472657	639.2421875000001	-609.0145263671876	-203.8456573486329	539.7095947265626	-609.6928100585939	-148.902816772461	443.472869873047	-650.6167602539064	-123.5343093872071	462.9600219726564	-759.2941284179689	-188.0003662109375	263.3556213378907	-712.5852661132814	-291.6932678222657	236.6700134277344	-701.2313232421876	-253.5923919677735	212.430160522461	-713.7422485351564	-261.0928649902344	170.056640625	-755.7028198242189	-359.6459655761719	111.9044570922852	-741.2145385742189	-332.0947570800782	134.0050659179688	-826.1223754882815	-438.3389282226564	97.46405792236331	-793.7579345703127	-212.9455261230469	52.77111816406251	-806.7860107421877	-216.8383026123047	55.20530700683595	-761.0237426757814	-272.4645996093751	36.6250343322754	-709.7298583984376	nan	nan	nan	nan	nan	nan	nan	nan	nan	nan	nan	nan	
1212	6.055	-110.3508682250977	1429.618041992188	-654.8215942382814	-272.9719543457032	1417.063598632813	-773.0003662109377	-242.4521636962891	1417.120727539063	-634.3234863281251	-328.3857116699219	1268.927368164063	-718.3632812500001	-444.742645263672	1007.119750976563	-783.7617797851565	nan	nan	nan	-254.4616699218751	1285.7353515625	-869.0859375000002	-91.92120361328126	1261.216674804688	-983.7091064453127	-69.13025665283205	1289.552001953125	-949.4776611328127	-22.92477989196778	1270.952392578125	-982.1730957031252	44.71525955200196	1278.123657226563	-975.4266357421877	48.54601287841798	1205.33349609375	-949.0620117187502	318.4656066894532	1305.779663085938	-871.7658691406252	321.7749023437501	1316.679565429688	-947.0877685546877	393.674530029297	1350.9755859375	-859.9534301757815	-218.0861206054688	1256.139038085938	-572.3656005859376	-59.94881820678712	1185.68505859375	-478.989471435547	-34.12980270385743	1222.9609375	-501.4170532226564	9.336878776550295	1185.6953125	-482.1683959960939	71.69079589843751	1201.9384765625	-492.2615661621095	78.29293823242189	1140.38818359375	-539.4730834960939	354.6990966796876	1268.786254882813	-572.8809204101564	358.9136962890626	1249.417358398438	-499.5253295898439	433.7836303710939	1314.706298828125	-562.9460449218751	-377.8828430175782	780.5974731445315	-893.3465576171877	-384.6513977050782	805.092712402344	-670.9555664062501	-530.8516845703126	897.3198242187502	-794.8918457031252	-547.1455078125001	866.8944091796877	-819.6936035156252	-550.5458374023439	873.4825439453127	-761.0266723632814	-375.6190490722657	548.5353393554689	-997.9254150390627	-312.6570434570313	491.8917846679689	-1014.631408691406	-268.5505676269532	506.1797485351564	-1002.742309570313	-317.4049072265626	429.3662719726564	-1005.963134765625	-282.1594543457032	356.6840515136719	-1005.400939941406	-256.8478698730469	311.7230529785157	-897.7437744140627	-365.9163513183594	255.5662841796876	-973.372009277344	-422.821502685547	319.4496459960938	-999.848571777344	-419.1297912597657	276.9255981445313	-990.4301757812502	-488.8553771972657	264.5647583007813	-938.3878173828127	-673.4163818359376	300.1896057128907	-940.198425292969	-645.1696166992189	284.6919860839844	-858.7462158203127	-676.3479003906251	375.2929077148438	-903.456726074219	-746.6542968750001	170.1180267333985	-815.9666748046877	-769.9356079101565	170.5054473876953	-850.9987792968752	-805.1992797851565	219.1682891845704	-890.6080322265627	-313.8645629882813	616.5723266601564	-602.5206909179689	-246.9207305908204	612.0641479492189	-602.0512695312501	-227.2981414794922	639.1125488281251	-609.0234985351564	-203.8877563476563	539.6515502929689	-609.6478881835939	-148.8498687744141	443.3975219726564	-650.5867309570314	-123.4667053222657	463.0754699707032	-759.2817382812501	-187.9840240478516	263.3023681640626	-712.5609130859376	-291.6913757324219	236.6696929931641	-701.2800903320314	-253.5971221923829	212.4054412841797	-713.7296752929689	-261.1392822265626	170.007553100586	-755.7028198242189	-359.6458129882813	111.8968048095703	-741.1705932617189	-332.0706787109376	134.0094451904297	-826.1636352539065	-438.3161010742189	97.46292114257815	-793.8089599609377	-212.9717102050782	52.83735656738283	-806.8074951171877	-216.8427124023438	55.20691680908205	-761.0133056640626	-272.4637451171876	36.65938568115235	-709.7089843750001	nan	nan	nan	nan	nan	nan	nan	nan	nan	nan	nan	nan	
